<?xml version="1.0" standalone="no"?>
<!DOCTYPE svg PUBLIC "-//W3C//DTD SVG 20010904//EN"
 "http://www.w3.org/TR/2001/REC-SVG-20010904/DTD/svg10.dtd">
<svg version="1.0" xmlns="http://www.w3.org/2000/svg"
 width="234.000000pt" height="234.000000pt" viewBox="0 0 234.000000 234.000000"
 preserveAspectRatio="xMidYMid meet">
<metadata>
Created by potrace 1.11, written by Peter Selinger 2001-2013
</metadata>
<g transform="translate(0.000000,234.000000) scale(0.100000,-0.100000)"
fill="#000000" stroke="none">
<path d="M1103 2329 c-10 -4 -21 -5 -25 -3 -3 2 -38 -3 -78 -11 -263 -55 -489
-256 -574 -510 -36 -105 -44 -192 -35 -365 4 -76 79 -262 137 -340 60 -81 147
-163 220 -207 62 -37 62 -21 0 25 -175 130 -279 335 -281 552 -1 285 177 548
443 653 249 98 546 39 735 -147 136 -135 205 -293 210 -485 4 -148 -30 -269
-112 -398 -31 -49 -157 -183 -173 -183 -4 0 -17 -9 -30 -20 -37 -32 -4 -23 56
15 101 65 223 208 273 320 7 17 17 37 22 47 13 26 37 128 45 188 12 94 4 223
-16 276 -6 16 -11 31 -11 34 2 32 -84 207 -125 255 -119 142 -240 225 -396
273 -96 30 -244 46 -285 31z"/>
<path d="M1300 1823 c-33 -14 -74 -75 -117 -176 -19 -45 -34 -83 -34 -84 1 -2
-2 -3 -5 -4 -4 0 -16 22 -29 48 -33 73 -73 102 -135 99 -75 -3 -121 -55 -150
-171 -29 -116 -31 -305 -5 -422 19 -84 26 -103 51 -127 17 -18 69 -22 79 -6 6
9 160 6 245 -6 19 -2 69 -7 111 -10 69 -6 77 -5 101 17 25 22 27 31 32 134 2
61 7 119 9 131 7 28 18 114 26 199 13 144 -19 260 -94 344 -36 39 -53 46 -85
34z m52 -235 c19 -84 11 -248 -17 -348 -2 -8 -7 -42 -11 -75 -3 -33 -9 -63
-13 -68 -4 -4 -25 -4 -47 1 l-39 8 2 100 c4 152 36 314 80 412 9 17 19 32 23
32 5 0 15 -28 22 -62z m-333 -91 c33 -99 54 -209 65 -344 l3 -43 -69 0 c-65 0
-69 1 -79 28 -11 28 -14 181 -4 240 16 100 18 110 35 154 7 20 17 35 21 32 4
-2 17 -32 28 -67z"/>
<path d="M874 830 c-32 -8 -62 -35 -73 -63 -10 -25 -7 -209 4 -287 15 -110 41
-195 85 -275 15 -27 40 -75 55 -105 16 -30 36 -63 44 -72 20 -25 58 -22 86 6
30 30 26 48 -39 172 -25 48 -46 93 -46 100 0 7 -4 14 -9 16 -6 2 -11 21 -13
43 l-3 40 201 5 c180 4 204 7 223 24 29 26 28 76 -2 104 -22 21 -32 22 -229
22 l-206 0 -4 36 c-2 19 1 38 6 42 6 3 133 6 283 7 l273 0 26 26 c28 29 38 79
22 114 -21 47 -34 49 -359 50 -168 0 -314 -2 -325 -5z"/>
</g>
</svg>
